<svg width="18" height="19" viewBox="0 0 18 19" fill="none" xmlns="http://www.w3.org/2000/svg">
<path d="M10.4839 9.26698L17.9458 0.372385C18.0708 0.224568 17.9657 0 17.7724 0H15.5039C15.3703 0 15.2424 0.0596952 15.1543 0.16203L9 7.49886L2.8457 0.16203C2.76042 0.0596952 2.6325 0 2.49606 0H0.227638C0.0343395 0 -0.0708381 0.224568 0.0542377 0.372385L7.51615 9.26698L0.0542377 18.1616C0.0262196 18.1945 0.00824487 18.2348 0.00244694 18.2777C-0.00335099 18.3205 0.00327139 18.3642 0.0215285 18.4034C0.0397857 18.4426 0.0689107 18.4757 0.105445 18.4989C0.141979 18.522 0.184389 18.5342 0.227638 18.534H2.49606C2.62966 18.534 2.75758 18.4743 2.8457 18.3719L9 11.0351L15.1543 18.3719C15.2396 18.4743 15.3675 18.534 15.5039 18.534H17.7724C17.9657 18.534 18.0708 18.3094 17.9458 18.1616L10.4839 9.26698Z" fill="black"/>
</svg>
