<svg width="23" height="23" viewBox="0 0 23 23" fill="none" xmlns="http://www.w3.org/2000/svg">
<path d="M13.2153 9.78415C12.3052 8.87444 11.071 8.3634 9.78426 8.3634C8.49746 8.3634 7.26335 8.87444 6.35326 9.78415L2.92115 13.2151C2.01105 14.1253 1.49976 15.3596 1.49976 16.6467C1.49976 17.9338 2.01105 19.1682 2.92115 20.0783C3.83126 20.9884 5.06562 21.4997 6.3527 21.4997C7.63979 21.4997 8.87415 20.9884 9.78426 20.0783L11.4998 18.3628" stroke="white" stroke-width="1.66667" stroke-linecap="round" stroke-linejoin="round"/>
<path d="M9.78424 13.2153C10.6943 14.125 11.9284 14.636 13.2152 14.636C14.502 14.636 15.7361 14.125 16.6462 13.2153L20.0783 9.78426C20.9884 8.87415 21.4997 7.63979 21.4997 6.3527C21.4997 5.06562 20.9884 3.83126 20.0783 2.92115C19.1682 2.01105 17.9339 1.49976 16.6468 1.49976C15.3597 1.49976 14.1253 2.01105 13.2152 2.92115L11.4997 4.63665" stroke="white" stroke-width="1.66667" stroke-linecap="round" stroke-linejoin="round"/>
</svg>
